<svg width="15.000000" height="15.000000" viewBox="0 0 15 15" fill="none" xmlns="http://www.w3.org/2000/svg">
    <desc>
        Created with Pixso.
    </desc>
    <defs/>
    <path id="Icon" d="M4.5 0C5.32 0 6 0.67 6 1.5L9 1.5C9 0.67 9.67 0 10.5 0C11.32 0 12 0.67 12 1.5C13.65 1.5 15 2.84 15 4.5L0 4.5C0 2.84 1.34 1.5 3 1.5C3 0.67 3.67 0 4.5 0ZM15 6L0 6L0 10.2C0 11.88 0 12.72 0.32 13.36C0.61 13.92 1.07 14.38 1.63 14.67C2.27 15 3.11 15 4.8 15L10.2 15C11.88 15 12.72 15 13.36 14.67C13.92 14.38 14.38 13.92 14.67 13.36C15 12.72 15 11.88 15 10.2L15 6ZM9.08 9.4C9 9.56 9 9.77 9 10.2L9 10.8C9 11.22 9 11.43 9.08 11.59C9.15 11.73 9.26 11.84 9.4 11.91C9.56 12 9.77 12 10.2 12L10.8 12C11.22 12 11.43 12 11.59 11.91C11.73 11.84 11.84 11.73 11.91 11.59C12 11.43 12 11.22 12 10.8L12 10.2C12 9.77 12 9.56 11.91 9.4C11.84 9.26 11.73 9.15 11.59 9.08C11.43 9 11.22 9 10.8 9L10.2 9C9.77 9 9.56 9 9.4 9.08C9.26 9.15 9.15 9.26 9.08 9.4Z" fill="#202020" fill-opacity="1.000000" fill-rule="evenodd"/>
</svg>
