<svg width="18.000000" height="18.000000" viewBox="0 0 18 18" fill="none" xmlns="http://www.w3.org/2000/svg">
    <desc>
        Created with Pixso.
    </desc>
    <defs/>
    <path id="Vector" d="M15 2.62C15.29 2.62 15.58 2.74 15.79 2.95C16 3.16 16.12 3.45 16.12 3.75L16.12 14.25C16.12 14.54 16 14.83 15.79 15.04C15.58 15.25 15.29 15.37 15 15.37C14.7 15.37 14.41 15.25 14.2 15.04C13.99 14.83 13.87 14.54 13.87 14.25L13.87 3.75C13.87 3.45 13.99 3.16 14.2 2.95C14.41 2.74 14.7 2.62 15 2.62Z" fill="#D9D9D9" fill-opacity="1.000000" fill-rule="evenodd"/>
    <path id="Vector" d="M12 4.87C12.29 4.87 12.58 4.99 12.79 5.2C13 5.41 13.12 5.7 13.12 6L13.12 14.25C13.12 14.54 13 14.83 12.79 15.04C12.58 15.25 12.29 15.37 12 15.37C11.7 15.37 11.41 15.25 11.2 15.04C10.99 14.83 10.87 14.54 10.87 14.25L10.87 6C10.87 5.7 10.99 5.41 11.2 5.2C11.41 4.99 11.7 4.87 12 4.87Z" fill="#D9D9D9" fill-opacity="1.000000" fill-rule="evenodd"/>
    <path id="Vector" d="M9 7.12C9.29 7.12 9.58 7.24 9.79 7.45C10 7.66 10.12 7.95 10.12 8.25L10.12 14.25C10.12 14.54 10 14.83 9.79 15.04C9.58 15.25 9.29 15.37 9 15.37C8.7 15.37 8.41 15.25 8.2 15.04C7.99 14.83 7.87 14.54 7.87 14.25L7.87 8.25C7.87 7.95 7.99 7.66 8.2 7.45C8.41 7.24 8.7 7.12 9 7.12Z" fill="#00C1FF" fill-opacity="1.000000" fill-rule="evenodd"/>
    <path id="Vector" d="M6 9.37C6.29 9.37 6.58 9.49 6.79 9.7C7 9.91 7.12 10.2 7.12 10.5L7.12 14.25C7.12 14.54 7 14.83 6.79 15.04C6.58 15.25 6.29 15.37 6 15.37C5.7 15.37 5.41 15.25 5.2 15.04C4.99 14.83 4.87 14.54 4.87 14.25L4.87 10.5C4.87 10.2 4.99 9.91 5.2 9.7C5.41 9.49 5.7 9.37 6 9.37Z" fill="#00C1FF" fill-opacity="1.000000" fill-rule="evenodd"/>
    <path id="Vector" d="M3 11.62C3.29 11.62 3.58 11.74 3.79 11.95C4 12.16 4.12 12.45 4.12 12.75L4.12 14.25C4.12 14.54 4 14.83 3.79 15.04C3.58 15.25 3.29 15.37 3 15.37C2.7 15.37 2.41 15.25 2.2 15.04C1.99 14.83 1.87 14.54 1.87 14.25L1.87 12.75C1.87 12.45 1.99 12.16 2.2 11.95C2.41 11.74 2.7 11.62 3 11.62Z" fill="#00C1FF" fill-opacity="1.000000" fill-rule="evenodd"/>
</svg>
